<svg width="1036" height="212" viewBox="0 0 1036 212" fill="none" xmlns="http://www.w3.org/2000/svg">
<path fill-rule="evenodd" clip-rule="evenodd" d="M898.637 211.517H854.789V176.517H898.637H937.766C950.194 176.517 960.273 166.433 960.266 153.998C960.265 152.829 960.265 151.669 960.264 150.517H876.789C845.033 150.517 819.289 124.773 819.289 93.017L819.289 0.016986L854.289 0.0169853V93.017C854.289 105.443 864.363 115.517 876.789 115.517H960.248C960.236 80.0544 960.242 47.9872 960.289 0L995.289 0.0339663C995.242 48.0081 995.236 80.0617 995.248 115.517H1035.79V150.517H995.264C995.264 151.663 995.265 152.816 995.266 153.978C995.284 185.744 969.539 211.517 937.766 211.517H898.637Z" fill="white"/>
<path fill-rule="evenodd" clip-rule="evenodd" d="M584.969 35.375H584.902V0.375L700.003 0.37501C731.807 0.375013 757.536 26.2099 757.508 57.9701C757.488 79.6513 757.498 89.0451 757.519 110.931V110.942C757.521 112.606 757.522 114.341 757.524 116.159H802.664V151.159H642.469C610.712 151.159 584.969 125.416 584.969 93.6594L584.969 35.375ZM619.969 35.375V93.6594C619.969 106.086 630.042 116.159 642.469 116.159H722.524C722.522 114.359 722.521 112.641 722.519 110.992C722.498 89.0841 722.488 79.654 722.508 57.939C722.519 45.4765 712.421 35.375 700.003 35.375L619.969 35.375Z" fill="white"/>
<path d="M545 18.0176L506.046 18.0176C483.937 18.0176 466.024 35.9847 466.041 58.094C466.067 89.8015 466.038 95.1706 466 151.018" stroke="white" stroke-width="35"/>
<path d="M392 0.015625V93.0156C392 115.107 374.091 133.016 352 133.016H291C268.909 133.016 251 115.107 251 93.0156V0.015625" stroke="white" stroke-width="35"/>
<path fill-rule="evenodd" clip-rule="evenodd" d="M0.0664211 35.0156H0V0.015625L115.1 0.0156345C146.893 0.0156378 172.634 25.8169 172.611 57.5871C172.596 78.0033 172.593 96.8797 172.596 115.8H217.762V150.8H172.609C172.619 168.721 172.634 187.49 172.649 208.323L172.65 208.389L172.65 208.428L172.652 211.002L137.652 211.029L137.65 208.454C137.634 187.572 137.619 168.762 137.609 150.8H57.5665C25.8101 150.8 0.0664213 125.056 0.0664204 93.3001L0.0664211 35.0156ZM35.0664 35.0156V93.3001C35.0664 105.726 45.14 115.8 57.5665 115.8H137.596C137.593 96.873 137.596 77.9876 137.611 57.562C137.62 45.1094 127.531 35.0156 115.1 35.0156L35.0664 35.0156Z" fill="white"/>
</svg>
